<?xml version="1.0" encoding="UTF-8" standalone="no"?>
<svg
   width="16"
   height="16"
   fill="currentColor"
   class="bi bi-check-circle-fill"
   viewBox="0 0 16 16"
   version="1.1"
   id="svg1"
   sodipodi:docname="check.svg"
   inkscape:version="1.3 (0e150ed6c4, 2023-07-21)"
   xmlns:inkscape="http://www.inkscape.org/namespaces/inkscape"
   xmlns:sodipodi="http://sodipodi.sourceforge.net/DTD/sodipodi-0.dtd"
   xmlns="http://www.w3.org/2000/svg"
   xmlns:svg="http://www.w3.org/2000/svg">
  <defs
     id="defs1" />
  <sodipodi:namedview
     id="namedview1"
     pagecolor="#505050"
     bordercolor="#eeeeee"
     borderopacity="1"
     inkscape:showpageshadow="0"
     inkscape:pageopacity="0"
     inkscape:pagecheckerboard="0"
     inkscape:deskcolor="#505050"
     inkscape:zoom="48.5625"
     inkscape:cx="8"
     inkscape:cy="8"
     inkscape:window-width="1920"
     inkscape:window-height="991"
     inkscape:window-x="-9"
     inkscape:window-y="-9"
     inkscape:window-maximized="1"
     inkscape:current-layer="layer2" />
  <g
     inkscape:groupmode="layer"
     id="layer2"
     inkscape:label="Layer 1"
     style="display:inline;fill:#2b0000">
    <rect
       style="fill:#ffffff;fill-opacity:1;fill-rule:evenodd;stroke:#000000;stroke-width:1.00157"
       id="rect1"
       width="10.275418"
       height="8.1132565"
       x="3.2947233"
       y="3.8301158" />
  </g>
  <path
     d="M 16,8 A 8,8 0 1 1 0,8 8,8 0 0 1 16,8 M 12.03,4.97 A 0.75,0.75 0 0 0 10.95,4.992 L 7.477,9.417 5.384,7.323 a 0.75,0.75 0 0 0 -1.06,1.06 L 6.97,11.03 a 0.75,0.75 0 0 0 1.079,-0.02 l 3.992,-4.99 a 0.75,0.75 0 0 0 -0.01,-1.05 z"
     id="path1"
     style="display:inline;fill:#f17ba2;fill-opacity:1" />
</svg>
